<svg width="30" height="32" viewBox="0 0 30 32" fill="none" xmlns="http://www.w3.org/2000/svg">
<path d="M15.3334 0C11.6642 0 8.70441 2.91582 8.70441 6.53061V7.83673H3.46336L3.40121 8.40816L0.749611 31.2653L0.666748 32H30.0001L29.9172 31.2653L27.2656 8.40816L27.2035 7.83673H21.9624V6.53061C21.9624 2.91582 19.0027 0 15.3334 0ZM15.3334 1.30612C18.2932 1.30612 20.6366 3.6148 20.6366 6.53061V7.83673H10.0302V6.53061C10.0302 3.6148 12.3737 1.30612 15.3334 1.30612ZM4.66486 9.14286H8.70441V10.6327C8.30823 10.8597 8.04151 11.273 8.04151 11.7551C8.04151 12.477 8.6345 13.0612 9.36731 13.0612C10.1001 13.0612 10.6931 12.477 10.6931 11.7551C10.6931 11.273 10.4264 10.8597 10.0302 10.6327V9.14286H20.6366V10.6327C20.2404 10.8597 19.9737 11.273 19.9737 11.7551C19.9737 12.477 20.5667 13.0612 21.2995 13.0612C22.0323 13.0612 22.6253 12.477 22.6253 11.7551C22.6253 11.273 22.3586 10.8597 21.9624 10.6327V9.14286H26.002L28.5086 30.6939H2.15827L4.66486 9.14286Z" fill="#FFFFF1"/>
</svg>
