<svg width="40" height="40" viewBox="0 0 40 40" fill="none" xmlns="http://www.w3.org/2000/svg">
<path d="M33.75 10.8333H5.83333L2.5 39.1666H37.0833L33.75 10.8333Z" fill="white"/>
<path d="M20.0001 0C15.4135 0 11.7138 3.64477 11.7138 8.16327V9.79592H5.16251L5.08483 10.5102L1.77033 39.0816L1.66675 40H38.3334L38.2298 39.0816L34.9153 10.5102L34.8377 9.79592H28.2863V8.16327C28.2863 3.64477 24.5867 0 20.0001 0ZM20.0001 1.63265C23.6998 1.63265 26.6291 4.51849 26.6291 8.16327V9.79592H13.3711V8.16327C13.3711 4.51849 16.3004 1.63265 20.0001 1.63265ZM6.66439 11.4286H11.7138V13.2908C11.2186 13.5746 10.8852 14.0912 10.8852 14.6939C10.8852 15.5963 11.6264 16.3265 12.5425 16.3265C13.4585 16.3265 14.1997 15.5963 14.1997 14.6939C14.1997 14.0912 13.8663 13.5746 13.3711 13.2908V11.4286H26.6291V13.2908C26.1339 13.5746 25.8005 14.0912 25.8005 14.6939C25.8005 15.5963 26.5417 16.3265 27.4577 16.3265C28.3737 16.3265 29.115 15.5963 29.115 14.6939C29.115 14.0912 28.7816 13.5746 28.2863 13.2908V11.4286H33.3358L36.469 38.3673H3.53115L6.66439 11.4286Z" fill="#424436"/>
</svg>
