<svg width="16" height="16" viewBox="0 0 16 16" fill="none" xmlns="http://www.w3.org/2000/svg">
<path d="M15.1643 9.35744C14.9879 9.21906 14.745 9.2016 14.5505 9.31341C13.6283 9.84349 12.6535 10.1123 11.6533 10.1123C8.43955 10.1123 5.82505 7.49766 5.82505 4.28382C5.82505 3.2792 6.09423 2.30577 6.62519 1.39066C6.73795 1.19639 6.72123 0.953028 6.58293 0.77592C6.44471 0.598812 6.21265 0.523465 5.9968 0.585826C4.44428 1.03337 3.04693 1.98288 2.0622 3.25939C1.0402 4.58433 0.5 6.17111 0.5 7.84828C0.5 12.0328 3.90423 15.4372 8.08864 15.4372C9.76581 15.4372 11.353 14.8972 12.6786 13.8755C13.9559 12.891 14.9059 11.4945 15.3534 9.94305C15.4157 9.7275 15.3408 9.49588 15.1643 9.35744ZM8.08864 14.3366C4.51105 14.3366 1.6005 11.4259 1.6005 7.84828C1.6005 5.43465 2.98164 3.23819 5.08074 2.13431C4.84391 2.8302 4.72454 3.54912 4.72454 4.28382C4.72454 8.10447 7.83281 11.2128 11.6533 11.2128C12.387 11.2128 13.1072 11.0929 13.8064 10.8553C12.7027 12.9548 10.5043 14.3366 8.08864 14.3366Z" fill="white"/>
</svg>
