<svg width="18" height="18" viewBox="0 0 18 18" fill="none" xmlns="http://www.w3.org/2000/svg">
<path d="M8.99897 14.918C8.68706 14.918 8.43433 15.1707 8.43433 15.4826V17.1873C8.43433 17.4992 8.68706 17.752 8.99897 17.752C9.31088 17.752 9.56362 17.4992 9.56362 17.1873V15.4826C9.56362 15.1707 9.31088 14.918 8.99897 14.918Z" fill="#8B8B8B"/>
<path d="M8.99897 3.08572C9.31088 3.08572 9.56362 2.83298 9.56362 2.52107V0.816598C9.56362 0.504688 9.31088 0.251953 8.99897 0.251953C8.68706 0.251953 8.43433 0.504688 8.43433 0.816598V2.52115C8.43433 2.83298 8.68706 3.08572 8.99897 3.08572Z" fill="#8B8B8B"/>
<path d="M4.01825 13.1849L2.81247 14.39C2.59188 14.6105 2.59181 14.968 2.81224 15.1885C2.92254 15.2989 3.06709 15.354 3.21164 15.354C3.35611 15.354 3.50058 15.299 3.6108 15.1887L4.81658 13.9836C5.03717 13.7631 5.03725 13.4056 4.81681 13.1851C4.59622 12.9644 4.23869 12.9643 4.01825 13.1849Z" fill="#8B8B8B"/>
<path d="M13.5818 4.98291C13.7263 4.98291 13.8708 4.92787 13.981 4.81765L15.1867 3.61247C15.4073 3.39196 15.4074 3.0345 15.1869 2.81399C14.9663 2.59325 14.6088 2.59333 14.3884 2.81377L13.1826 4.01894C12.962 4.23946 12.9619 4.59691 13.1824 4.8175C13.2927 4.9278 13.4373 4.98291 13.5818 4.98291Z" fill="#8B8B8B"/>
<path d="M3.08414 9.00019C3.08414 8.68828 2.83141 8.43555 2.5195 8.43555H0.814645C0.502735 8.43555 0.25 8.68828 0.25 9.00019C0.25 9.3121 0.502735 9.56484 0.814645 9.56484H2.5195C2.83133 9.56484 3.08414 9.31203 3.08414 9.00019Z" fill="#8B8B8B"/>
<path d="M17.1853 8.43555H15.4799C15.168 8.43555 14.9153 8.68828 14.9153 9.00019C14.9153 9.3121 15.168 9.56484 15.4799 9.56484H17.1853C17.4972 9.56484 17.75 9.3121 17.75 9.00019C17.75 8.68828 17.4972 8.43555 17.1853 8.43555Z" fill="#8B8B8B"/>
<path d="M4.01818 4.81745C4.12848 4.92774 4.27295 4.98285 4.4175 4.98285C4.56197 4.98285 4.70652 4.92774 4.81674 4.81752C5.03733 4.59701 5.03733 4.23947 4.81682 4.01904L3.61164 2.81386C3.39105 2.59327 3.03352 2.59335 2.81316 2.81378C2.59257 3.0343 2.59257 3.39183 2.81308 3.61227L4.01818 4.81745Z" fill="#8B8B8B"/>
<path d="M13.9818 13.185C13.7612 12.9644 13.4036 12.9644 13.1833 13.1849C12.9627 13.4054 12.9627 13.7629 13.1832 13.9834L14.3883 15.1886C14.4986 15.2989 14.6431 15.354 14.7876 15.354C14.9321 15.354 15.0766 15.2989 15.1869 15.1887C15.4074 14.9682 15.4074 14.6106 15.1869 14.3901L13.9818 13.185Z" fill="#8B8B8B"/>
<path d="M8.99979 3.91797C6.19675 3.91797 3.91626 6.19846 3.91626 9.0015C3.91626 11.8046 6.19675 14.085 8.99979 14.085C11.8028 14.085 14.0833 11.8046 14.0833 9.0015C14.0833 6.19846 11.8028 3.91797 8.99979 3.91797ZM8.99979 12.9558C6.81936 12.9558 5.04555 11.182 5.04555 9.00158C5.04555 6.82115 6.81936 5.04726 8.99979 5.04726C11.1802 5.04726 12.954 6.82115 12.954 9.0015C12.954 11.1819 11.1802 12.9558 8.99979 12.9558Z" fill="#8B8B8B"/>
</svg>
